<?xml version="1.0" standalone="no"?>
<!DOCTYPE svg PUBLIC "-//W3C//DTD SVG 20010904//EN"
 "http://www.w3.org/TR/2001/REC-SVG-20010904/DTD/svg10.dtd">
<svg version="1.0" xmlns="http://www.w3.org/2000/svg"
 width="1280.000000pt" height="1146.000000pt" viewBox="0 0 1280.000000 1146.000000"
 preserveAspectRatio="xMidYMid meet">
<g transform="translate(0.000000,1146.000000) scale(0.100000,-0.100000)"
fill="#000000" stroke="none">
<path d="M5380 11450 c-25 -4 -88 -13 -140 -19 -325 -41 -660 -124 -932 -232
-295 -117 -777 -390 -926 -524 -79 -71 -130 -184 -193 -425 -28 -107 -86 -321
-130 -475 -44 -154 -87 -303 -95 -332 -14 -51 -16 -53 -130 -128 -127 -84
-240 -176 -385 -313 l-96 -91 -139 -25 c-76 -14 -330 -57 -564 -96 -791 -132
-1336 -232 -1352 -248 -11 -11 -114 -413 -153 -597 -50 -234 -90 -480 -109
-670 -9 -88 -21 -196 -27 -240 -6 -44 -9 -120 -7 -170 l3 -89 45 -13 c59 -18
242 -48 410 -68 74 -9 242 -32 374 -51 324 -46 756 -104 1206 -160 206 -25
380 -52 387 -58 18 -17 20 -665 6 -2206 -18 -1848 -17 -2591 1 -2634 14 -33
17 -35 81 -41 37 -4 73 -14 81 -22 25 -25 13 -56 -31 -79 -38 -19 -40 -23 -46
-75 -3 -31 -19 -79 -37 -114 -59 -114 -79 -283 -47 -392 18 -60 74 -116 132
-132 21 -6 86 -11 145 -11 100 0 108 1 138 26 37 31 74 104 120 232 37 104 46
112 126 112 33 0 44 4 44 15 0 21 -41 35 -106 35 -37 0 -56 4 -60 14 -3 7 5
51 16 97 12 46 24 117 27 156 3 40 11 77 17 82 23 19 497 -42 1311 -169 110
-17 305 -47 433 -65 222 -32 234 -35 267 -63 63 -56 109 -60 395 -36 57 5 112
0 230 -20 152 -25 543 -75 1050 -135 152 -18 277 -38 310 -50 85 -30 275 -69
390 -82 114 -12 182 -35 199 -68 10 -17 8 -23 -11 -35 -13 -7 -33 -17 -44 -20
-22 -7 -34 -41 -34 -97 0 -16 -11 -46 -25 -67 -39 -60 -66 -150 -72 -243 -12
-190 43 -275 209 -323 70 -20 91 -20 148 1 88 32 126 86 180 260 31 101 32
103 68 112 20 5 50 11 67 13 18 2 31 9 33 19 3 14 -9 17 -72 21 -42 2 -80 8
-86 14 -8 8 -3 40 15 110 15 60 25 127 25 170 0 54 4 75 17 85 9 8 24 28 34
44 l19 30 452 77 c1255 213 1555 261 1582 254 40 -10 32 -46 -14 -61 -34 -11
-35 -14 -40 -71 -3 -41 -14 -74 -34 -107 -39 -65 -66 -176 -67 -268 -1 -160
53 -247 166 -268 79 -15 238 0 265 24 35 31 66 92 105 204 19 58 41 111 47
118 6 7 31 13 57 13 53 0 94 21 70 36 -8 5 -45 11 -82 15 -38 3 -73 11 -79 17
-8 8 -5 32 11 87 13 42 26 121 30 175 5 76 10 102 23 112 16 12 18 154 22
2143 3 1172 8 2427 12 2790 4 363 4 690 0 727 -7 63 -9 67 -37 73 -38 9 -45
23 -17 35 13 5 127 26 253 45 218 34 359 57 1085 176 168 27 418 67 555 90
345 55 317 47 332 94 15 52 15 143 0 225 l-12 65 -225 32 c-400 56 -525 75
-536 85 -7 5 -15 24 -18 43 -8 42 -23 50 -106 59 -315 34 -1536 208 -1577 226
-22 9 -23 15 -23 122 0 62 -3 157 -7 210 -6 91 -7 97 -30 103 -50 12 -52 81
-7 233 36 122 44 214 44 540 l0 292 33 0 c17 0 49 3 71 7 l38 6 -6 191 c-21
589 -44 751 -121 851 -64 85 -167 113 -450 125 -129 6 -255 17 -355 34 -337
55 -1235 183 -1945 277 -253 33 -283 37 -510 68 -121 17 -346 49 -500 71 -154
22 -357 49 -450 60 -132 15 -183 25 -225 44 -103 47 -366 77 -490 56z m3067
-3776 c-3 -3 -12 -4 -19 -1 -8 3 -5 6 6 6 11 1 17 -2 13 -5z m-230 -40 c-3 -3
-12 -4 -19 -1 -8 3 -5 6 6 6 11 1 17 -2 13 -5z m188 -54 c3 -5 -1 -10 -10 -10
-9 0 -13 5 -10 10 3 6 8 10 10 10 2 0 7 -4 10 -10z m400 -60 c3 -5 1 -10 -4
-10 -6 0 -11 5 -11 10 0 6 2 10 4 10 3 0 8 -4 11 -10z m2050 -70 c-8 -13 -75
-13 -95 0 -11 7 2 10 43 10 36 0 56 -4 52 -10z m-758 -106 c-3 -3 -12 -4 -19
-1 -8 3 -5 6 6 6 11 1 17 -2 13 -5z m80 0 c-3 -3 -12 -4 -19 -1 -8 3 -5 6 6 6
11 1 17 -2 13 -5z"/>
</g>
</svg>
